<svg id="visual" viewBox="0 0 900 450" width="900" height="450" xmlns="http://www.w3.org/2000/svg" xmlns:xlink="http://www.w3.org/1999/xlink" version="1.1"><rect x="0" y="0" width="900" height="450" fill="#fff"></rect><defs><linearGradient id="grad1_0" x1="50%" y1="0%" x2="100%" y2="100%"><stop offset="10%" stop-color="#204362" stop-opacity="1"></stop><stop offset="90%" stop-color="#204362" stop-opacity="1"></stop></linearGradient></defs><defs><linearGradient id="grad1_1" x1="50%" y1="0%" x2="100%" y2="100%"><stop offset="10%" stop-color="#204362" stop-opacity="1"></stop><stop offset="90%" stop-color="#8e9bae" stop-opacity="1"></stop></linearGradient></defs><defs><linearGradient id="grad1_2" x1="50%" y1="0%" x2="100%" y2="100%"><stop offset="10%" stop-color="#ffffff" stop-opacity="1"></stop><stop offset="90%" stop-color="#8e9bae" stop-opacity="1"></stop></linearGradient></defs><defs><linearGradient id="grad2_0" x1="0%" y1="0%" x2="50%" y2="100%"><stop offset="10%" stop-color="#204362" stop-opacity="1"></stop><stop offset="90%" stop-color="#204362" stop-opacity="1"></stop></linearGradient></defs><defs><linearGradient id="grad2_1" x1="0%" y1="0%" x2="50%" y2="100%"><stop offset="10%" stop-color="#8e9bae" stop-opacity="1"></stop><stop offset="90%" stop-color="#204362" stop-opacity="1"></stop></linearGradient></defs><defs><linearGradient id="grad2_2" x1="0%" y1="0%" x2="50%" y2="100%"><stop offset="10%" stop-color="#8e9bae" stop-opacity="1"></stop><stop offset="90%" stop-color="#ffffff" stop-opacity="1"></stop></linearGradient></defs><g transform="translate(900, 0)"><path d="M0 450C-61.6 448 -123.1 446.1 -172.2 415.7C-221.3 385.4 -257.8 326.7 -273.7 273.7C-289.5 220.6 -284.5 173.2 -310.4 128.6C-336.4 83.9 -393.2 42 -450 0L0 0Z" fill="#c5ccd6"></path><path d="M0 300C-41 298.7 -82.1 297.4 -114.8 277.2C-147.5 256.9 -171.9 217.8 -182.4 182.4C-193 147.1 -189.7 115.5 -206.9 85.7C-224.2 55.9 -262.1 28 -300 0L0 0Z" fill="#586e87"></path><path d="M0 150C-20.5 149.3 -41 148.7 -57.4 138.6C-73.8 128.5 -85.9 108.9 -91.2 91.2C-96.5 73.5 -94.8 57.7 -103.5 42.9C-112.1 28 -131.1 14 -150 0L0 0Z" fill="#204362"></path></g><g transform="translate(0, 450)"><path d="M0 -450C55.6 -441.9 111.2 -433.8 172.2 -415.7C233.2 -397.7 299.6 -369.7 317.5 -317.5C335.4 -265.3 304.7 -189 318.7 -132C332.7 -75.1 391.4 -37.5 450 0L0 0Z" fill="#c5ccd6"></path><path d="M0 -300C37.1 -294.6 74.1 -289.2 114.8 -277.2C155.5 -265.1 199.7 -246.4 211.7 -211.7C223.6 -176.9 203.2 -126 212.5 -88C221.8 -50.1 260.9 -25 300 0L0 0Z" fill="#586e87"></path><path d="M0 -150C18.5 -147.3 37.1 -144.6 57.4 -138.6C77.7 -132.6 99.9 -123.2 105.8 -105.8C111.8 -88.4 101.6 -63 106.2 -44C110.9 -25 130.5 -12.5 150 0L0 0Z" fill="#204362"></path></g></svg>