<svg id="visual" viewBox="0 0 900 600" width="900" height="600" xmlns="http://www.w3.org/2000/svg" xmlns:xlink="http://www.w3.org/1999/xlink" version="1.1"><rect x="0" y="0" width="900" height="600" fill="#204362"></rect><path d="M0 364L21.5 366.8C43 369.7 86 375.3 128.8 397C171.7 418.7 214.3 456.3 257.2 467C300 477.7 343 461.3 385.8 445.7C428.7 430 471.3 415 514.2 413.7C557 412.3 600 424.7 642.8 429C685.7 433.3 728.3 429.7 771.2 416.2C814 402.7 857 379.3 878.5 367.7L900 356L900 0L878.5 0C857 0 814 0 771.2 0C728.3 0 685.7 0 642.8 0C600 0 557 0 514.2 0C471.3 0 428.7 0 385.8 0C343 0 300 0 257.2 0C214.3 0 171.7 0 128.8 0C86 0 43 0 21.5 0L0 0Z" fill="#accce8"></path><path d="M0 277L21.5 292.5C43 308 86 339 128.8 338.7C171.7 338.3 214.3 306.7 257.2 303C300 299.3 343 323.7 385.8 321.7C428.7 319.7 471.3 291.3 514.2 286C557 280.7 600 298.3 642.8 317.8C685.7 337.3 728.3 358.7 771.2 359.3C814 360 857 340 878.5 330L900 320L900 0L878.5 0C857 0 814 0 771.2 0C728.3 0 685.7 0 642.8 0C600 0 557 0 514.2 0C471.3 0 428.7 0 385.8 0C343 0 300 0 257.2 0C214.3 0 171.7 0 128.8 0C86 0 43 0 21.5 0L0 0Z" fill="#c8ddf0"></path><path d="M0 241L21.5 244.3C43 247.7 86 254.3 128.8 253.8C171.7 253.3 214.3 245.7 257.2 240.7C300 235.7 343 233.3 385.8 232.3C428.7 231.3 471.3 231.7 514.2 221C557 210.3 600 188.7 642.8 185.8C685.7 183 728.3 199 771.2 210.3C814 221.7 857 228.3 878.5 231.7L900 235L900 0L878.5 0C857 0 814 0 771.2 0C728.3 0 685.7 0 642.8 0C600 0 557 0 514.2 0C471.3 0 428.7 0 385.8 0C343 0 300 0 257.2 0C214.3 0 171.7 0 128.8 0C86 0 43 0 21.5 0L0 0Z" fill="#e4eef8"></path><path d="M0 138L21.5 134.8C43 131.7 86 125.3 128.8 122.5C171.7 119.7 214.3 120.3 257.2 123.2C300 126 343 131 385.8 125.8C428.7 120.7 471.3 105.3 514.2 108.8C557 112.3 600 134.7 642.8 140C685.7 145.3 728.3 133.7 771.2 129.3C814 125 857 128 878.5 129.5L900 131L900 0L878.5 0C857 0 814 0 771.2 0C728.3 0 685.7 0 642.8 0C600 0 557 0 514.2 0C471.3 0 428.7 0 385.8 0C343 0 300 0 257.2 0C214.3 0 171.7 0 128.8 0C86 0 43 0 21.5 0L0 0Z" fill="#ffffff"></path></svg>