<svg id="visual" viewBox="0 0 900 600" width="900" height="600" xmlns="http://www.w3.org/2000/svg" xmlns:xlink="http://www.w3.org/1999/xlink" version="1.1"><rect x="0" y="0" width="900" height="600" fill="#fff"></rect><g fill="#204362"><circle r="30" cx="725" cy="72"></circle><circle r="2" cx="631" cy="231"></circle><circle r="4" cx="146" cy="506"></circle><circle r="22" cx="797" cy="183"></circle><circle r="13" cx="801" cy="92"></circle><circle r="1" cx="525" cy="384"></circle><circle r="19" cx="717" cy="511"></circle><circle r="2" cx="236" cy="125"></circle><circle r="1" cx="163" cy="277"></circle><circle r="20" cx="431" cy="548"></circle><circle r="5" cx="495" cy="263"></circle><circle r="3" cx="447" cy="325"></circle><circle r="18" cx="429" cy="236"></circle><circle r="3" cx="756" cy="288"></circle><circle r="27" cx="505" cy="550"></circle><circle r="14" cx="216" cy="317"></circle><circle r="14" cx="154" cy="31"></circle><circle r="16" cx="703" cy="387"></circle><circle r="16" cx="755" cy="448"></circle><circle r="25" cx="198" cy="78"></circle><circle r="5" cx="198" cy="446"></circle><circle r="16" cx="82" cy="47"></circle><circle r="8" cx="340" cy="250"></circle><circle r="7" cx="309" cy="494"></circle><circle r="11" cx="31" cy="425"></circle><circle r="8" cx="93" cy="413"></circle><circle r="20" cx="93" cy="213"></circle><circle r="16" cx="359" cy="379"></circle></g></svg>