<svg id="visual" viewBox="0 0 960 300" width="960" height="300" xmlns="http://www.w3.org/2000/svg" xmlns:xlink="http://www.w3.org/1999/xlink" version="1.1"><rect x="0" y="0" width="960" height="300" fill="#fff"></rect><path d="M0 257L22.8 249.5C45.7 242 91.3 227 137 220.7C182.7 214.3 228.3 216.7 274 223.8C319.7 231 365.3 243 411.2 241.7C457 240.3 503 225.7 548.8 218.8C594.7 212 640.3 213 686 222.5C731.7 232 777.3 250 823 258.2C868.7 266.3 914.3 264.7 937.2 263.8L960 263L960 301L937.2 301C914.3 301 868.7 301 823 301C777.3 301 731.7 301 686 301C640.3 301 594.7 301 548.8 301C503 301 457 301 411.2 301C365.3 301 319.7 301 274 301C228.3 301 182.7 301 137 301C91.3 301 45.7 301 22.8 301L0 301Z" fill="#204362" stroke-linecap="round" stroke-linejoin="miter"></path></svg>